<?xml version="1.0" standalone="no"?>
<!DOCTYPE svg PUBLIC "-//W3C//DTD SVG 20010904//EN"
 "http://www.w3.org/TR/2001/REC-SVG-20010904/DTD/svg10.dtd">
<svg version="1.0" xmlns="http://www.w3.org/2000/svg"
 width="260.000000pt" height="260.000000pt" viewBox="0 0 260.000000 260.000000"
 preserveAspectRatio="xMidYMid meet">
<metadata>
Created by potrace 1.11, written by Peter Selinger 2001-2013
</metadata>
<g transform="translate(0.000000,260.000000) scale(0.100000,-0.100000)"
fill="#000000" stroke="none">
<path d="M0 1300 l0 -1300 1300 0 1300 0 0 1300 0 1300 -1300 0 -1300 0 0
-1300z m1540 678 c0 -11 -267 -977 -321 -1160 l-20 -68 -60 0 c-53 0 -60 2
-55 18 3 9 80 285 172 612 91 327 168 598 171 603 8 13 113 8 113 -5z m-552
-389 l-3 -72 -307 -126 c-170 -69 -308 -128 -308 -131 0 -3 139 -62 308 -131
l307 -127 3 -62 c2 -35 1 -69 -2 -76 -3 -9 -121 37 -398 156 l-393 169 0 72 0
72 385 163 c212 90 391 163 398 164 10 0 12 -18 10 -71z m1037 -90 c209 -88
386 -163 393 -166 8 -3 12 -27 12 -69 0 -50 -4 -66 -17 -75 -10 -6 -189 -84
-398 -173 l-380 -163 -3 65 c-2 36 -1 70 1 76 3 6 140 68 306 136 165 69 301
128 301 131 0 3 -136 62 -302 130 l-303 124 -3 73 c-2 39 1 72 5 72 5 0 180
-72 388 -161z"/>
</g>
</svg>
